<svg xmlns="http://www.w3.org/2000/svg" width="900" height="176" viewBox="0 0 900 176" role="img" aria-label="Ashi Jain">
<rect x="0.5" y="0.5" width="899" height="175" rx="9" fill="#0b0f14" stroke="#262c36" stroke-width="1"/>
<text x="36" y="46" font-family="ui-monospace,'SF Mono','Cascadia Code',Menlo,Consolas,monospace" font-size="10.5" letter-spacing="1.1" fill="#6e7681">ashijain3</text>
<text x="34" y="98" font-family="'Segoe UI',Ubuntu,'Helvetica Neue',Helvetica,Arial,sans-serif" font-size="44" font-weight="600" letter-spacing="-1.1" fill="#e6edf3">Ashi Jain</text>
<text x="36" y="124" font-family="'Segoe UI',Ubuntu,'Helvetica Neue',Helvetica,Arial,sans-serif" font-size="14.5" fill="#8b949e">Agents get interesting at the point where they stop being predictable.</text>
<g><rect x="34.0" y="140" width="99.2" height="21" rx="10.5" fill="#161b22" stroke="#30363d" stroke-width="1"/><circle cx="51.0" cy="150.5" r="3.2" fill="#a78bfa"/><text x="60.0" y="154.4" font-family="ui-monospace,'SF Mono','Cascadia Code',Menlo,Consolas,monospace" font-size="11" fill="#c9d1d9">LLM agents</text></g>
<g><rect x="142.2" y="140" width="99.2" height="21" rx="10.5" fill="#161b22" stroke="#30363d" stroke-width="1"/><circle cx="159.2" cy="150.5" r="3.2" fill="#22d3ee"/><text x="168.2" y="154.4" font-family="ui-monospace,'SF Mono','Cascadia Code',Menlo,Consolas,monospace" font-size="11" fill="#c9d1d9">evaluation</text></g>
<g><rect x="250.4" y="140" width="52.9" height="21" rx="10.5" fill="#161b22" stroke="#30363d" stroke-width="1"/><circle cx="267.4" cy="150.5" r="3.2" fill="#2dd4bf"/><text x="276.4" y="154.4" font-family="ui-monospace,'SF Mono','Cascadia Code',Menlo,Consolas,monospace" font-size="11" fill="#c9d1d9">RAG</text></g>
<g><rect x="312.3" y="140" width="132.3" height="21" rx="10.5" fill="#161b22" stroke="#30363d" stroke-width="1"/><circle cx="329.3" cy="150.5" r="3.2" fill="#fbbf24"/><text x="338.3" y="154.4" font-family="ui-monospace,'SF Mono','Cascadia Code',Menlo,Consolas,monospace" font-size="11" fill="#c9d1d9">RL environments</text></g>
<g><rect x="453.6" y="140" width="72.7" height="21" rx="10.5" fill="#161b22" stroke="#30363d" stroke-width="1"/><circle cx="470.6" cy="150.5" r="3.2" fill="#60a5fa"/><text x="479.6" y="154.4" font-family="ui-monospace,'SF Mono','Cascadia Code',Menlo,Consolas,monospace" font-size="11" fill="#c9d1d9">Python</text></g>
</svg>